<?xml version="1.0" encoding="utf-8"?>
<!-- Generator: Adobe Illustrator 17.0.0, SVG Export Plug-In . SVG Version: 6.00 Build 0)  -->
<!DOCTYPE svg PUBLIC "-//W3C//DTD SVG 1.1//EN" "http://www.w3.org/Graphics/SVG/1.1/DTD/svg11.dtd">
<svg version="1.1" id="Capa_1" xmlns="http://www.w3.org/2000/svg" xmlns:xlink="http://www.w3.org/1999/xlink" x="0px" y="0px"
	 width="64px" height="64px" viewBox="0 0 64 64" enable-background="new 0 0 64 64" xml:space="preserve">
<g>
	<rect x="6" y="48" width="8" height="2"/>
	<rect x="51" y="48" width="8" height="2"/>
	<path d="M24.899,29.993c-0.263-0.053-1.521,0.886-1.78,0.827c-4.757-5.336-11.483-5.169-14.753-2.433L8.341,32l-0.004,0.588
		l48.67,0.408L57.021,32l0.018-1.266c-1.078-1.981-4.054-2.865-7.385-2.79C43.862,28.074,30.366,27.675,24.899,29.993z"/>
	<path d="M6,47h8h1h35h1h8h1h2V28.5c0-0.277-0.226-0.504-0.503-0.506l-2.916-0.018c-0.279,0-0.507,0.225-0.511,0.501L58,33.514
		l-0.007,0.49l-0.778-0.007L57,33.996l-4.813-0.04l-5.844-0.049l-30.81-0.258l-0.997-0.008l-4.795-0.04l-0.107-0.001l-2.304-0.019
		L7.333,33l0.007-1l0.018-2.527l0.05-6.977c0.001-0.133-0.05-0.258-0.143-0.352C7.174,22.051,7.05,22,6.917,22c0,0,0,0-0.001,0H3.5
		C3.225,22,3,22.224,3,22.5V47h2H6z"/>
</g>
</svg>
