<?xml version="1.0" encoding="utf-8"?>
<!-- Generator: Adobe Illustrator 17.0.0, SVG Export Plug-In . SVG Version: 6.00 Build 0)  -->
<!DOCTYPE svg PUBLIC "-//W3C//DTD SVG 1.1//EN" "http://www.w3.org/Graphics/SVG/1.1/DTD/svg11.dtd">
<svg version="1.1" id="Capa_1" xmlns="http://www.w3.org/2000/svg" xmlns:xlink="http://www.w3.org/1999/xlink" x="0px" y="0px"
	 width="64px" height="64px" viewBox="0 0 64 64" enable-background="new 0 0 64 64" xml:space="preserve">
<g>
	<path d="M1.667,7.667v41.125v3h61v-3V7.667H1.667z M5.667,11.667h53v33.125h-53V11.667z M7.833,49.791
		c-0.652,0-1.201-0.419-1.408-1c-0.056-0.157-0.092-0.324-0.092-0.5s0.036-0.343,0.092-0.5c0.207-0.581,0.756-1,1.408-1
		s1.202,0.419,1.408,1c0.056,0.157,0.092,0.324,0.092,0.5s-0.036,0.343-0.092,0.5C9.035,49.372,8.485,49.791,7.833,49.791z"/>
	<rect x="15.667" y="56.284" width="34.333" height="3.681"/>
	<rect x="22.167" y="52.699" width="21.333" height="2.529"/>
</g>
</svg>
