<?xml version="1.0" encoding="iso-8859-1"?>
<!-- Generator: Adobe Illustrator 17.0.2, SVG Export Plug-In . SVG Version: 6.00 Build 0)  -->
<!DOCTYPE svg PUBLIC "-//W3C//DTD SVG 1.1//EN" "http://www.w3.org/Graphics/SVG/1.1/DTD/svg11.dtd">
<svg version="1.1" id="Layer_1" xmlns="http://www.w3.org/2000/svg" xmlns:xlink="http://www.w3.org/1999/xlink" x="0px" y="0px"
	 width="64px" height="64px" viewBox="0 0 64 64" style="enable-background:new 0 0 64 64;" xml:space="preserve">
<g>
	<path d="M9.084,46.375h45.332c0.007,0,0.015,0,0.02,0c0.829,0,1.5-0.671,1.5-1.5c0-0.086-0.007-0.171-0.021-0.253
		C55.784,31.926,45.811,21.55,33.279,20.763l0.031-1.556c1.734-0.64,2.981-2.294,2.981-4.248c0-2.504-2.037-4.541-4.541-4.541
		s-4.541,2.037-4.541,4.541c0,1.997,1.305,3.679,3.1,4.285l-0.03,1.514C17.636,21.522,7.584,32.044,7.584,44.875
		C7.584,45.704,8.256,46.375,9.084,46.375z M30.209,14.958c0-0.85,0.691-1.541,1.541-1.541s1.541,0.691,1.541,1.541
		c0,0.85-0.691,1.542-1.541,1.542S30.209,15.809,30.209,14.958z M31.75,23.709c11.167,0,20.342,8.692,21.113,19.666H10.637
		C11.408,32.401,20.583,23.709,31.75,23.709z"/>
	<path d="M34.562,26.52c-0.828,0-1.5,0.671-1.5,1.5s0.672,1.5,1.5,1.5c5.223,0,10.543,5.321,10.543,10.544
		c0,0.829,0.672,1.5,1.5,1.5s1.5-0.671,1.5-1.5C48.104,33.102,41.522,26.52,34.562,26.52z"/>
	<path d="M9.084,51.25h45.332c0.828,0,1.5-0.671,1.5-1.5s-0.672-1.5-1.5-1.5H9.084c-0.828,0-1.5,0.671-1.5,1.5
		S8.256,51.25,9.084,51.25z"/>
</g>
</svg>
