<?xml version="1.0" encoding="utf-8"?>
<!-- Generator: Adobe Illustrator 16.0.4, SVG Export Plug-In . SVG Version: 6.00 Build 0)  -->
<!DOCTYPE svg PUBLIC "-//W3C//DTD SVG 1.1//EN" "http://www.w3.org/Graphics/SVG/1.1/DTD/svg11.dtd">
<svg version="1.1" id="Capa_1" xmlns="http://www.w3.org/2000/svg" xmlns:xlink="http://www.w3.org/1999/xlink" x="0px" y="0px"
	 width="64px" height="64px" viewBox="0 0 64 64" enable-background="new 0 0 64 64" xml:space="preserve">
<path d="M60.658,39.667c0.003-0.033,0.02-0.062,0.02-0.097c0-0.07-0.007-0.14-0.021-0.206c-0.069-5.551-2.943-8.805-7.144-10.717
	v-2.938c0-5.718-4.238-9.132-11.338-9.132c-5.316,0-9.027,1.915-10.556,5.278c-1.735-2.848-5.254-4.452-10.119-4.452
	c-7.099,0-11.337,3.414-11.337,9.132v2.68c-3.21,1.996-5.247,5.201-5.247,10.354v4.943v0.001v0.001v5.741c0,1.103,0.897,2,2,2H9.57
	c1.103,0,2-0.897,2-2v-4.743h42.435v4.743c0,1.103,0.897,2,2,2h2.653c1.103,0,2-0.897,2-2v-5.741v-0.001v-0.001V39.667z
	 M6.917,43.514V40.57h51.741v2.943H6.917z M32.839,25.709c0-6.437,6.529-7.132,9.337-7.132s9.338,0.695,9.338,7.132v2.156
	c-5.489-1.833-12.57-1.935-18.703-1.94c-0.002-0.02-0.002-0.04-0.003-0.06C32.816,25.812,32.839,25.765,32.839,25.709z
	 M12.164,26.536c0-6.438,6.53-7.132,9.337-7.132c2.714,0,8.887,0.666,9.298,6.521c-6.628,0.004-13.598,0.11-18.635,2.263V26.536z
	 M31.772,27.925c7.174,0,14.89,0.003,20.208,2.152c0.099,0.063,0.204,0.106,0.322,0.133c3.572,1.531,5.996,4.086,6.318,8.361H6.948
	C7.575,28.708,17.681,27.925,31.772,27.925z M6.917,50.257v-4.741H9.57l0.001,4.741H6.917z M56.005,50.257v-4.741h2.653l0.002,4.741
	H56.005z"/>
</svg>
