<?xml version="1.0" encoding="utf-8"?>
<!-- Generator: Adobe Illustrator 17.0.0, SVG Export Plug-In . SVG Version: 6.00 Build 0)  -->
<!DOCTYPE svg PUBLIC "-//W3C//DTD SVG 1.1//EN" "http://www.w3.org/Graphics/SVG/1.1/DTD/svg11.dtd">
<svg version="1.1" id="Capa_1" xmlns="http://www.w3.org/2000/svg" xmlns:xlink="http://www.w3.org/1999/xlink" x="0px" y="0px"
	 width="64px" height="64px" viewBox="0 0 64 64" enable-background="new 0 0 64 64" xml:space="preserve">
<g>
	<path d="M55.167,33h-6.5v-0.603H56c1.657,0,3-1.527,3-3.411V5.245c0-1.884-1.343-3.411-3-3.411H8.333c-1.657,0-3,1.527-3,3.411
		v23.741c0,1.884,1.343,3.411,3,3.411h6.5V33H9c-2.176,0-3.952,1.747-3.999,3.911L2.014,54.836L2,55c0,1.657,0.343,5.5,2,5.5h56.167
		c1.656,0,1.999-3.838,2-5.496c0-0.001,0-0.002,0-0.004l-3.001-18.089C59.119,34.747,57.343,33,55.167,33z M9.627,27.488V5.981
		h45.539v21.507H9.627z M58.167,56.5H6c-0.59,0-1.948-0.141-1.999-1.426l2.654-15.925l0.331-1.985L7,37c0-1.103,0.897-2,2-2h46.167
		c1.103,0,2,0.897,2,2l0.36,2.168l2.639,15.906C60.115,56.359,58.757,56.5,58.167,56.5z"/>
	<path d="M38.109,50.398h-0.752l0.536,3.269L26.27,53.661l0.49-3.263h-0.702h-0.76l-0.556,3.328l-0.01,0.123
		c0,0.764,0.603,1.317,1.432,1.317h11.839c0.829,0,1.431-0.554,1.431-1.317l-0.567-3.451H38.109z"/>
	<path d="M51.804,37.799c0-0.277-0.56-0.697-1.402-0.697h-36.97c-0.813,0-1.402,0.416-1.402,0.697l-0.01,0.137L12.011,38
		l-1.378,10.011c0.057,0.146,0.545,0.388,1.396,0.388h14.482h11.145h14.148c0.852,0,1.34-0.241,1.396-0.388L51.831,38L51.804,37.799
		z"/>
</g>
</svg>
