<?xml version="1.0" encoding="utf-8"?>
<!-- Generator: Adobe Illustrator 17.0.0, SVG Export Plug-In . SVG Version: 6.00 Build 0)  -->
<!DOCTYPE svg PUBLIC "-//W3C//DTD SVG 1.1//EN" "http://www.w3.org/Graphics/SVG/1.1/DTD/svg11.dtd">
<svg version="1.1" id="Capa_1" xmlns="http://www.w3.org/2000/svg" xmlns:xlink="http://www.w3.org/1999/xlink" x="0px" y="0px"
	 width="64px" height="64px" viewBox="0 0 64 64" enable-background="new 0 0 64 64" xml:space="preserve">
<g>
	<path d="M4.477,60.132c0.527,0.527,1.817,1.178,2.729,1.178c0.307,0,0.571-0.074,0.748-0.251l21.404-22.553l0.684,0.732
		l0.684,0.732l20.297,21.715c0.507,0.507,3.561-1.727,4.804-2.97l0.554-0.554c1.243-1.243,3.476-4.298,2.97-4.804L37.449,32.885
		l-0.731-0.683l-0.73-0.683l1.401-1.476l2.39-1.067l2.393-1.068l2.848-1.271c2.135-0.493,4.267-1.924,6.233-3.891
		c7.461-7.461,9.112-10.013,7.919-12.379l-9.687,9.285c-0.202,0.203-0.495,0.327-0.776,0.327c-0.233,0-0.446-0.085-0.6-0.239
		l-0.263-0.262c-0.154-0.154-0.238-0.367-0.238-0.6c0-0.281,0.125-0.574,0.335-0.784l8.933-10.474
		c-0.238-0.237-0.487-0.484-0.748-0.745c-0.429-0.43-0.825-0.818-1.2-1.173l-10.485,8.948c-0.181,0.183-0.474,0.308-0.754,0.308
		c-0.232,0-0.445-0.085-0.6-0.239l-0.264-0.263c-0.154-0.154-0.238-0.367-0.238-0.6c0-0.281,0.125-0.574,0.335-0.784l9.072-9.464
		c-2.658-0.935-5.204,1.61-12.663,9.069c-1.992,1.992-3.212,3.927-3.458,5.861c-0.4,1.069-0.887,2.381-1.381,3.733
		c-0.256,0.699-0.513,1.408-0.761,2.101c-0.187,0.521-0.367,1.03-0.539,1.52l0.208,0.172l2.166,1.792l-0.985,2.346l-0.518,1.234
		l-1.586,3.779l-0.956,2.279l-2.103,0.945l-0.086,0.039l-2.753,1.237l-3.441-3.912L2.391,55.496
		c-0.704,0.704,0.223,2.773,0.927,3.477L4.477,60.132z M50.54,52.714c0.69-0.69,1.81-0.69,2.5,0c0.69,0.69,0.69,1.809,0,2.5
		c-0.69,0.69-1.81,0.69-2.5,0S49.85,53.404,50.54,52.714z M39.195,38.869c0.69,0.69,0.69,1.809,0,2.5c-0.69,0.69-1.81,0.69-2.5,0
		s-0.69-1.81,0-2.5C37.386,38.179,38.505,38.179,39.195,38.869z M6.695,54.869c0.578-0.578,1.515-0.578,2.093,0
		c0.578,0.578,0.578,1.515,0,2.093c-0.578,0.578-1.515,0.578-2.093,0C6.118,56.384,6.118,55.447,6.695,54.869z"/>
	<path d="M22.54,33.617l0.662,0.751l0.661,0.751l2.981,3.383l1.767-0.794l2.141-0.962l2.548-6.07l0.503-1.198l0.554-1.32
		l-1.515-1.253l-0.173-0.143l-0.776-0.642l-0.776-0.642L5.553,4.33c-0.499,6.272,1.361,11.199,1.618,11.844L22.54,33.617z"/>
</g>
</svg>
