<?xml version="1.0" encoding="iso-8859-1"?>
<!-- Generator: Adobe Illustrator 17.0.2, SVG Export Plug-In . SVG Version: 6.00 Build 0)  -->
<!DOCTYPE svg PUBLIC "-//W3C//DTD SVG 1.1//EN" "http://www.w3.org/Graphics/SVG/1.1/DTD/svg11.dtd">
<svg version="1.1" id="Capa_1" xmlns="http://www.w3.org/2000/svg" xmlns:xlink="http://www.w3.org/1999/xlink" x="0px" y="0px"
	 width="64px" height="64px" viewBox="0 0 64 64" style="enable-background:new 0 0 64 64;" xml:space="preserve">
<g>
	<path d="M26.437,39.344c-0.213,0-0.351,0.015-0.417,0.032v1.167h0.4c0.454,0,0.734-0.241,0.734-0.609
		C27.155,39.534,26.875,39.344,26.437,39.344z"/>
	<path d="M20.922,33.742c-0.276,0-0.453,0.021-0.538,0.042v1.506H20.9c0.587,0,0.948-0.312,0.948-0.784
		C21.849,33.989,21.488,33.742,20.922,33.742z"/>
	<path d="M30.523,33.734c-0.863,0-1.323,0.8-1.323,1.782c0,0.976,0.488,1.747,1.323,1.747c0.841,0,1.315-0.786,1.315-1.782
		C31.838,34.583,31.393,33.734,30.523,33.734z"/>
	<path d="M25.542,37.264c0.841,0,1.315-0.786,1.315-1.782c0-0.898-0.445-1.747-1.315-1.747c-0.863,0-1.322,0.8-1.322,1.782
		C24.219,36.492,24.706,37.264,25.542,37.264z"/>
	<path d="M39.675,11.758C38.886,6.072,34.242,1.69,28.633,1.69c-6.161,0-11.175,5.283-11.175,11.776
		c0,1.774,1.364,3.212,3.048,3.212s3.047-1.438,3.047-3.212c0-2.951,2.279-5.353,5.08-5.353c2.801,0,5.08,2.401,5.08,5.353
		c-0.065,4.471-10.5,6.218-10.5,6.218l0.005,0.011c-2.99,0.589-5.258,3.387-5.258,6.766v27.381c0,3.807,2.875,6.892,6.423,6.892h9
		c3.312,0,6.006-2.699,6.354-6.152l0.011,0.022V54.47c0.018-0.21,0.059-0.413,0.059-0.628V26.461c0-0.215-0.041-0.418-0.059-0.628
		V14.084c0.037-0.2,0.059-0.405,0.059-0.617c0-0.409-0.021-0.812-0.059-1.211V11.79C39.748,11.79,39.722,11.777,39.675,11.758z
		 M25.57,33.035c1.386,0,2.206,1.053,2.206,2.418c0,1.599-0.969,2.51-2.277,2.51c-1.35,0-2.199-1.032-2.199-2.425
		C23.3,34.067,24.226,33.035,25.57,33.035z M20.524,42.612c-0.394,0-0.8-0.108-1.002-0.236l0.153-0.559
		c0.214,0.126,0.548,0.237,0.893,0.237c0.428,0,0.668-0.203,0.668-0.505c0-0.279-0.186-0.443-0.651-0.614
		c-0.614-0.218-1.003-0.542-1.003-1.072c0-0.607,0.503-1.062,1.309-1.062c0.399,0,0.69,0.088,0.881,0.185l-0.159,0.545
		c-0.136-0.072-0.394-0.178-0.739-0.178c-0.428,0-0.608,0.226-0.608,0.447c0,0.283,0.213,0.414,0.706,0.605
		c0.641,0.241,0.947,0.565,0.947,1.097C21.921,42.097,21.471,42.612,20.524,42.612z M21.678,36.761
		c-0.141-0.622-0.36-0.819-0.855-0.834h-0.439v1.959h-0.862V33.19c0.332-0.063,0.813-0.106,1.315-0.106
		c0.686,0,1.146,0.113,1.471,0.382c0.262,0.22,0.411,0.551,0.411,0.961c0,0.616-0.418,1.033-0.87,1.188v0.021
		c0.346,0.128,0.551,0.46,0.665,0.92c0.155,0.594,0.283,1.146,0.375,1.329h-0.891C21.926,37.744,21.806,37.355,21.678,36.761z
		 M24.76,42.554h-2.23v-3.694h2.147v0.554h-1.473v0.953h1.392v0.548h-1.392V42h1.556V42.554z M27.27,42.554
		c-0.056-0.113-0.148-0.412-0.247-0.871c-0.11-0.481-0.279-0.636-0.663-0.647h-0.339v1.519h-0.668v-3.638
		c0.258-0.049,0.63-0.082,1.019-0.082c0.532,0,0.888,0.088,1.14,0.294c0.202,0.172,0.317,0.429,0.317,0.746
		c0,0.477-0.322,0.8-0.672,0.92v0.018c0.268,0.099,0.426,0.354,0.515,0.711c0.119,0.461,0.218,0.888,0.29,1.031H27.27z
		 M30.108,42.554h-0.773l-1.194-3.694h0.735l0.503,1.684c0.143,0.464,0.268,0.893,0.362,1.34h0.012
		c0.097-0.437,0.234-0.886,0.377-1.336l0.537-1.688h0.717L30.108,42.554z M32.459,42.554h-0.673v-3.694h0.673V42.554z M30.48,37.963
		c-1.35,0-2.199-1.032-2.199-2.425c0-1.471,0.927-2.503,2.27-2.503c1.386,0,2.206,1.053,2.206,2.418
		C32.757,37.052,31.788,37.963,30.48,37.963z M35.035,42.049c0.269,0,0.553-0.056,0.734-0.133l0.109,0.532
		c-0.159,0.076-0.509,0.164-0.958,0.164c-1.172,0-1.883-0.733-1.883-1.862c0-1.216,0.849-1.949,1.977-1.949
		c0.443,0,0.755,0.095,0.892,0.164l-0.142,0.536c-0.175-0.076-0.421-0.143-0.722-0.143c-0.751,0-1.293,0.471-1.293,1.359
		C33.748,41.533,34.219,42.049,35.035,42.049z M35.524,37.829l-0.636-2.036c-0.184-0.609-0.354-1.259-0.481-1.853h-0.014
		c-0.021,0.623-0.049,1.379-0.085,2.029l-0.106,1.917h-0.813l0.318-4.767h1.146l0.623,1.917c0.169,0.559,0.318,1.124,0.438,1.653
		h0.021c0.127-0.515,0.29-1.102,0.474-1.661l0.658-1.909h1.131l0.276,4.767h-0.848l-0.092-1.944
		c-0.028-0.615-0.064-1.358-0.057-2.002h-0.021c-0.156,0.58-0.353,1.224-0.566,1.825l-0.7,2.065H35.524z M38.684,42.554h-2.228
		v-3.694h2.147v0.554h-1.474v0.953h1.391v0.548h-1.391V42h1.555V42.554z"/>
</g>
</svg>
